<svg width="14" height="15" viewBox="0 0 14 15" fill="none" xmlns="http://www.w3.org/2000/svg">
<path fill-rule="evenodd" clip-rule="evenodd" d="M5.66797 7.83325C5.66797 7.55712 5.89184 7.33325 6.16797 7.33325H9.5013C9.77744 7.33325 10.0013 7.55712 10.0013 7.83325C10.0013 8.10939 9.77744 8.33325 9.5013 8.33325H6.16797C5.89184 8.33325 5.66797 8.10939 5.66797 7.83325ZM3.66797 7.83325C3.66797 7.55712 3.89183 7.33325 4.16797 7.33325H4.17396C4.4501 7.33325 4.67396 7.55712 4.67396 7.83325C4.67396 8.10939 4.4501 8.33325 4.17396 8.33325H4.16797C3.89183 8.33325 3.66797 8.10939 3.66797 7.83325ZM3.66797 10.4999C3.66797 10.2238 3.89183 9.99992 4.16797 9.99992H7.5013C7.77744 9.99992 8.0013 10.2238 8.0013 10.4999C8.0013 10.7761 7.77744 10.9999 7.5013 10.9999H4.16797C3.89183 10.9999 3.66797 10.7761 3.66797 10.4999ZM8.9953 10.4999C8.9953 10.2238 9.21917 9.99992 9.4953 9.99992H9.5013C9.77744 9.99992 10.0013 10.2238 10.0013 10.4999C10.0013 10.7761 9.77744 10.9999 9.5013 10.9999H9.4953C9.21917 10.9999 8.9953 10.7761 8.9953 10.4999Z" fill="#E17B7B"/>
<path fill-rule="evenodd" clip-rule="evenodd" d="M2.83203 0C3.10817 0 3.33203 0.22386 3.33203 0.5V1.83333C3.33203 2.10947 3.10817 2.33333 2.83203 2.33333C2.55589 2.33333 2.33203 2.10947 2.33203 1.83333V0.5C2.33203 0.22386 2.55589 0 2.83203 0ZM10.832 0C11.1082 0 11.332 0.22386 11.332 0.5V1.83333C11.332 2.10947 11.1082 2.33333 10.832 2.33333C10.5559 2.33333 10.332 2.10947 10.332 1.83333V0.5C10.332 0.22386 10.5559 0 10.832 0Z" fill="#E17B7B"/>
<path fill-rule="evenodd" clip-rule="evenodd" d="M6.15947 0.666748H7.5072C8.81633 0.666735 9.8538 0.666728 10.6658 0.784748C11.5048 0.906702 12.1753 1.16346 12.699 1.72966C13.2176 2.29031 13.4481 2.9987 13.5585 3.88642C13.6667 4.75629 13.6667 5.87108 13.6667 7.29348V7.70668C13.6667 9.12908 13.6667 10.2439 13.5585 11.1137C13.4481 12.0015 13.2176 12.7099 12.699 13.2705C12.1753 13.8367 11.5048 14.0935 10.6658 14.2154C9.8538 14.3334 8.81633 14.3334 7.5072 14.3334H6.15947C4.85037 14.3334 3.81288 14.3334 3.00086 14.2154C2.16184 14.0935 1.49143 13.8367 0.967693 13.2705C0.449087 12.7099 0.218567 12.0015 0.108167 11.1137C-1.31925e-05 10.2439 -6.56201e-06 9.12908 1.0466e-07 7.70675V7.29341C-6.56201e-06 5.87108 -1.31925e-05 4.75628 0.108167 3.88642C0.218567 2.9987 0.449087 2.29031 0.967693 1.72966C1.49143 1.16346 2.16184 0.906702 3.00086 0.784748C3.81288 0.666728 4.85037 0.666735 6.15947 0.666748ZM3.14469 1.77436C2.43152 1.87801 2.01281 2.07247 1.70179 2.40869C1.38566 2.75047 1.19881 3.21952 1.10052 4.00984C1.00091 4.81079 1 5.86335 1 7.32888V7.67128C1 9.13682 1.00091 10.1893 1.10052 10.9903C1.19881 11.7806 1.38566 12.2497 1.70179 12.5915C2.01281 12.9277 2.43152 13.1221 3.14469 13.2258C3.87651 13.3321 4.84125 13.3334 6.2 13.3334H7.46667C8.8254 13.3334 9.79013 13.3321 10.522 13.2258C11.2351 13.1221 11.6539 12.9277 11.9649 12.5915C12.281 12.2497 12.4679 11.7806 12.5661 10.9903C12.6657 10.1893 12.6667 9.13682 12.6667 7.67128V7.32888C12.6667 5.86335 12.6657 4.81079 12.5661 4.00984C12.4679 3.21952 12.281 2.75047 11.9649 2.40869C11.6539 2.07247 11.2351 1.87801 10.522 1.77436C9.79013 1.66799 8.8254 1.66675 7.46667 1.66675H6.2C4.84125 1.66675 3.87651 1.66799 3.14469 1.77436Z" fill="#E17B7B"/>
<path fill-rule="evenodd" clip-rule="evenodd" d="M0.332031 4.5C0.332031 4.22386 0.555891 4 0.832031 4H12.832C13.1082 4 13.332 4.22386 13.332 4.5C13.332 4.77614 13.1082 5 12.832 5H0.832031C0.555891 5 0.332031 4.77614 0.332031 4.5Z" fill="#E17B7B"/>
</svg>
