<svg width="21" height="22" viewBox="0 0 21 22" fill="none" xmlns="http://www.w3.org/2000/svg">
<path d="M7.39571 21.0593H2.35946C2.24208 21.0593 2.13108 21.0041 2.06021 20.9104C1.98933 20.8163 1.96646 20.6948 1.99871 20.5815L2.42246 19.0965C2.60583 18.4594 3.06446 17.9543 3.68021 17.7109C3.98471 17.5916 4.27383 17.5073 4.56071 17.4518C5.15996 17.337 5.76671 17.3374 6.36446 17.4518C6.65171 17.5073 6.94083 17.592 7.22508 17.703C7.69308 17.8856 8.07108 18.2149 8.30846 18.6379C8.41008 18.8183 8.34558 19.047 8.16483 19.1483C7.98521 19.2495 7.75608 19.1861 7.65446 19.0046C7.50183 18.7328 7.25921 18.5213 6.97158 18.4091C6.71058 18.3071 6.46458 18.2351 6.22271 18.1879C5.72621 18.0926 5.20046 18.0923 4.70321 18.1879C4.46133 18.2348 4.21608 18.3064 3.97458 18.4009C3.55908 18.5651 3.26283 18.8918 3.14433 19.3028L2.85708 20.3093H7.39608C7.60346 20.3093 7.77108 20.4769 7.77108 20.6843C7.77108 20.8916 7.60346 21.0593 7.39608 21.0593H7.39571Z" fill="#1A2921"/>
<path d="M5.46153 17.1653C4.55441 17.1653 3.81641 16.4269 3.81641 15.5198C3.81641 14.6126 4.55441 13.8746 5.46153 13.8746C6.36866 13.8746 7.10666 14.6126 7.10666 15.5198C7.10666 16.4269 6.36866 17.1653 5.46153 17.1653ZM5.46153 14.625C4.96803 14.625 4.56641 15.0263 4.56641 15.5201C4.56641 16.014 4.96766 16.4156 5.46153 16.4156C5.95541 16.4156 6.35666 16.014 6.35666 15.5201C6.35666 15.0263 5.95541 14.625 5.46153 14.625Z" fill="#1A2921"/>
<path d="M13.9667 20.58L13.5422 19.0961C13.3625 18.4687 12.8927 17.9505 12.2642 17.7015C11.9863 17.5927 11.6968 17.5087 11.4035 17.4514C10.8054 17.3374 10.1987 17.337 9.59978 17.4514C9.30766 17.5084 9.01816 17.5924 8.72003 17.7094C8.11178 17.9501 7.64153 18.468 7.46228 19.095L7.03778 20.5792C7.00553 20.6925 7.02841 20.8144 7.09891 20.9085C7.16978 21.0022 7.28078 21.0574 7.39853 21.0574H13.6059C13.7233 21.0574 13.8343 21.0022 13.9055 20.9085C13.976 20.8144 13.9989 20.6925 13.9667 20.5792V20.58Z" fill="#1A2921"/>
<path d="M10.5006 13.875C9.59347 13.875 8.85547 14.613 8.85547 15.5201C8.85547 16.4273 9.59347 17.1656 10.5006 17.1656C11.4077 17.1656 12.1457 16.4273 12.1457 15.5201C12.1457 14.613 11.4077 13.875 10.5006 13.875Z" fill="#1A2921"/>
<path d="M18.6411 21.0592H13.6048C13.3974 21.0592 13.2298 20.8916 13.2298 20.6842C13.2298 20.4769 13.3974 20.3092 13.6048 20.3092H18.1438L17.8562 19.302C17.7384 18.8914 17.4422 18.5651 17.0439 18.4076C16.7848 18.306 16.5392 18.2344 16.2969 18.1871C15.8004 18.0919 15.2747 18.0915 14.7774 18.1871C14.5359 18.234 14.2903 18.3056 14.0481 18.4001C13.7417 18.5197 13.4991 18.7316 13.3464 19.0031C13.2448 19.1839 13.0153 19.2476 12.8361 19.1467C12.6557 19.0451 12.5912 18.8167 12.6924 18.6364C12.9298 18.2134 13.3078 17.8841 13.7571 17.709C14.0601 17.5905 14.3492 17.5057 14.6357 17.4506C15.2349 17.3359 15.8417 17.3362 16.4394 17.4506C16.7271 17.5065 17.0162 17.5909 17.3001 17.7019C17.9361 17.9539 18.3947 18.459 18.5777 19.0954L19.0018 20.5811C19.0341 20.6944 19.0112 20.8159 18.9403 20.91C18.8698 21.0037 18.7588 21.0592 18.6411 21.0592Z" fill="#1A2921"/>
<path d="M15.5357 17.1653C14.6286 17.1653 13.8906 16.4269 13.8906 15.5198C13.8906 14.6126 14.6286 13.8746 15.5357 13.8746C16.4429 13.8746 17.1812 14.6126 17.1812 15.5198C17.1812 16.4269 16.4429 17.1653 15.5357 17.1653ZM15.5357 14.625C15.0422 14.625 14.6406 15.0263 14.6406 15.5201C14.6406 16.014 15.0419 16.4156 15.5357 16.4156C16.0296 16.4156 16.4312 16.014 16.4312 15.5201C16.4312 15.0263 16.0296 14.625 15.5357 14.625Z" fill="#1A2921"/>
<path d="M4.10625 12.8359C4.04287 12.8359 3.97988 12.8198 3.92288 12.7879L2.13675 11.7855H0.375C0.167625 11.7855 0 11.6179 0 11.4105V7.59302C0 7.38564 0.167625 7.21802 0.375 7.21802H5.46112C5.6685 7.21802 5.83612 7.38564 5.83612 7.59302C5.83612 7.80039 5.6685 7.96802 5.46112 7.96802H0.75V11.0355H2.235C2.2995 11.0355 2.3625 11.052 2.41838 11.0835L3.73125 11.8204V11.4105C3.73125 11.2031 3.89887 11.0355 4.10625 11.0355H4.5195C4.72687 11.0355 4.8945 11.2031 4.8945 11.4105C4.8945 11.6179 4.72687 11.7855 4.5195 11.7855H4.48125V12.4609C4.48125 12.594 4.41075 12.7174 4.29562 12.7845C4.2375 12.8186 4.17188 12.8359 4.10625 12.8359Z" fill="#1A2921"/>
<path d="M4.51769 9.29437H1.82031C1.61294 9.29437 1.44531 9.12675 1.44531 8.91937C1.44531 8.712 1.61294 8.54437 1.82031 8.54437H4.51769C4.72506 8.54437 4.89269 8.712 4.89269 8.91937C4.89269 9.12675 4.72506 9.29437 4.51769 9.29437Z" fill="#1A2921"/>
<path d="M4.51769 10.4603H1.82031C1.61294 10.4603 1.44531 10.2926 1.44531 10.0853C1.44531 9.87789 1.61294 9.71027 1.82031 9.71027H4.51769C4.72506 9.71027 4.89269 9.87789 4.89269 10.0853C4.89269 10.2926 4.72506 10.4603 4.51769 10.4603Z" fill="#1A2921"/>
<path d="M16.8947 12.8359C16.8291 12.8359 16.7634 12.8186 16.7053 12.7845C16.5902 12.717 16.5197 12.594 16.5197 12.4609V11.7686C16.3671 11.721 16.2564 11.5785 16.2564 11.4105C16.2564 11.2031 16.4241 11.0355 16.6314 11.0355H16.8947C17.1021 11.0355 17.2697 11.2031 17.2697 11.4105V11.8204L18.5826 11.0835C18.6384 11.052 18.7014 11.0355 18.7659 11.0355H20.2509V7.96802H15.5391C15.3317 7.96802 15.1641 7.80039 15.1641 7.59302C15.1641 7.38564 15.3317 7.21802 15.5391 7.21802H20.6259C20.8333 7.21802 21.0009 7.38564 21.0009 7.59302V11.4105C21.0009 11.6179 20.8333 11.7855 20.6259 11.7855H18.8642L17.0781 12.7879C17.0211 12.8198 16.9581 12.8359 16.8947 12.8359Z" fill="#1A2921"/>
<path d="M19.1778 9.29437H16.4805C16.2731 9.29437 16.1055 9.12675 16.1055 8.91937C16.1055 8.712 16.2731 8.54437 16.4805 8.54437H19.1778C19.3852 8.54437 19.5528 8.712 19.5528 8.91937C19.5528 9.12675 19.3852 9.29437 19.1778 9.29437Z" fill="#1A2921"/>
<path d="M19.1778 10.4603H16.4805C16.2731 10.4603 16.1055 10.2926 16.1055 10.0853C16.1055 9.87789 16.2731 9.71027 16.4805 9.71027H19.1778C19.3852 9.71027 19.5528 9.87789 19.5528 10.0853C19.5528 10.2926 19.3852 10.4603 19.1778 10.4603Z" fill="#1A2921"/>
<path d="M15.6608 11.4645L15.0046 9.17028C14.7451 8.26128 14.0633 7.51015 13.151 7.14865C12.7313 6.9844 12.2963 6.8584 11.8565 6.77253C10.958 6.6004 10.046 6.6004 9.14634 6.77253C8.70722 6.85803 8.27222 6.98403 7.82184 7.16065C6.93984 7.50978 6.25846 8.2609 5.99934 9.16915L5.34272 11.4638C5.31009 11.577 5.33297 11.6989 5.40347 11.7927C5.47434 11.8868 5.58534 11.9419 5.70309 11.9419H15.3008C15.4182 11.9419 15.5292 11.8868 15.6005 11.7927C15.671 11.6989 15.6938 11.577 15.6612 11.4638L15.6608 11.4645Z" fill="#7C9A82"/>
<path d="M9.06166 9.43772C9.0538 9.30708 9.11468 9.17644 9.23182 9.10026L10.3262 8.38974C10.4625 8.30114 10.6404 8.31072 10.7664 8.41284L11.7727 9.22799C11.9338 9.35842 11.9582 9.59514 11.8281 9.75549C11.6977 9.91624 11.4614 9.94136 11.3006 9.8109L10.506 9.16709L9.6397 9.72902C9.46615 9.84165 9.23365 9.79253 9.121 9.6186C9.08455 9.56219 9.06502 9.49988 9.06126 9.43737L9.06166 9.43772Z" fill="#1A2921"/>
<path d="M10.5018 6.12037C8.81428 6.12037 7.44141 4.74788 7.44141 3.06038C7.44141 1.37288 8.81428 0 10.5018 0C12.1893 0 13.5618 1.37288 13.5618 3.06038C13.5618 4.74788 12.1893 6.12037 10.5018 6.12037ZM10.5018 0.75C9.22791 0.75 8.19141 1.7865 8.19141 3.06038C8.19141 4.33425 9.22791 5.37037 10.5018 5.37037C11.7757 5.37037 12.8118 4.33388 12.8118 3.06038C12.8118 1.78688 11.7753 0.75 10.5018 0.75Z" fill="#1A2921"/>
</svg>
