<svg width="14" height="12" viewBox="0 0 14 12" fill="none" xmlns="http://www.w3.org/2000/svg">
<path fill-rule="evenodd" clip-rule="evenodd" d="M7.58 0.0442922C7.75913 -0.0365744 7.969 -0.00499448 8.1164 0.124999L13.5971 4.95833C14.1237 5.4228 14.1237 6.24387 13.5971 6.70833L8.1164 11.5417C7.969 11.6717 7.75913 11.7033 7.58 11.6224C7.40087 11.5415 7.28573 11.3632 7.28573 11.1667V8.6672C5.98727 8.67146 4.87693 8.7072 3.86887 8.99607C2.79565 9.3036 1.82111 9.9052 0.9 11.1333C0.770873 11.3055 0.54606 11.3757 0.341887 11.3077C0.137713 11.2397 0 11.0486 0 10.8333C0 7.7542 1.0193 5.77073 2.54447 4.56813C3.94047 3.46738 5.69259 3.07509 7.28573 3.0101V0.500005C7.28573 0.303466 7.40087 0.125152 7.58 0.0442922ZM8.28573 1.60761V3.36667C8.28573 3.71561 8.00467 3.99688 7.6584 4.0007C6.08407 4.01807 4.42266 4.36064 3.16365 5.3534C2.14527 6.1564 1.33657 7.42753 1.08307 9.43813C1.86127 8.72546 2.69546 8.29206 3.59341 8.03473C4.85305 7.6738 6.22047 7.667 7.6518 7.66667C7.99953 7.6666 8.28573 7.94806 8.28573 8.3V10.0591L12.9357 5.95833C13.0109 5.892 13.0109 5.77466 12.9357 5.70833L8.28573 1.60761Z" fill="#365327"/>
</svg>
