<svg width="21" height="21" viewBox="0 0 21 21" fill="none" xmlns="http://www.w3.org/2000/svg">
<path d="M7.55325 15.1875H1.5C0.67275 15.1875 0 14.5147 0 13.6875V13.1812C0 12.9742 0.168 12.8062 0.375 12.8062H8.84812C9.05512 12.8062 9.22312 12.9742 9.22312 13.1812C9.22312 13.3882 9.05512 13.5562 8.84812 13.5562H0.75V13.6875C0.75 14.1011 1.08637 14.4375 1.5 14.4375H7.55325C7.76025 14.4375 7.92825 14.6055 7.92825 14.8125C7.92825 15.0195 7.76025 15.1875 7.55325 15.1875Z" fill="#1A2921"/>
<path d="M0.375 13.5562C0.168 13.5562 0 13.3882 0 13.1812V5.36249C0 4.53524 0.67275 3.86249 1.5 3.86249H12.1088C12.936 3.86249 13.6088 4.53524 13.6088 5.36249C13.6088 5.56949 13.4408 5.73749 13.2338 5.73749C13.0268 5.73749 12.8588 5.56949 12.8588 5.36249C12.8588 4.94886 12.5224 4.61249 12.1088 4.61249H1.5C1.08637 4.61249 0.75 4.94886 0.75 5.36249V13.1812C0.75 13.3882 0.582 13.5562 0.375 13.5562Z" fill="#1A2921"/>
<path d="M6.80438 17.829H2.625C2.418 17.829 2.25 17.661 2.25 17.454C2.25 17.247 2.418 17.079 2.625 17.079H6.80438C7.01137 17.079 7.17938 17.247 7.17938 17.454C7.17938 17.661 7.01137 17.829 6.80438 17.829Z" fill="#1A2921"/>
<path d="M4.26621 17.829C4.23883 17.829 4.21146 17.826 4.18333 17.82C3.98121 17.7746 3.85446 17.574 3.89983 17.3718L4.49421 14.7303C4.53958 14.5282 4.74021 14.4022 4.94233 14.4468C5.14446 14.4922 5.27121 14.6928 5.22583 14.895L4.63146 17.5365C4.59246 17.7108 4.43796 17.829 4.26621 17.829Z" fill="#1A2921"/>
<path d="M5.28272 8.80874L5.14134 8.25974C5.05059 7.90762 4.83834 7.61437 4.55897 7.41299C4.68122 7.23824 4.75434 7.02637 4.75434 6.79724C4.75434 6.20287 4.27059 5.71912 3.67622 5.71912C3.08184 5.71912 2.59809 6.20287 2.59809 6.79724C2.59809 7.02637 2.67122 7.23824 2.79384 7.41337C2.51447 7.61474 2.30259 7.90799 2.21184 8.26012L2.07047 8.80912C2.04159 8.92124 2.06597 9.04087 2.13722 9.13237C2.20809 9.22424 2.31759 9.27787 2.43384 9.27787H4.91972C5.03559 9.27787 5.14509 9.22424 5.21634 9.13237C5.28722 9.04087 5.31197 8.92162 5.28309 8.80912L5.28272 8.80874Z" fill="#1A2921"/>
<path d="M5.28295 13.0867L5.1412 12.5415C5.05157 12.1879 4.83932 11.8935 4.55883 11.6917C4.68107 11.517 4.7542 11.3051 4.7542 11.076C4.7542 10.4816 4.27045 9.99786 3.67608 9.99786C3.0817 9.99786 2.59795 10.4816 2.59795 11.076C2.59795 11.3055 2.67108 11.517 2.7937 11.6921C2.77833 11.7034 2.7607 11.7116 2.7457 11.7236C2.48357 11.9295 2.2942 12.2201 2.2132 12.5392L2.0707 13.0867C2.04145 13.1992 2.06583 13.3189 2.13708 13.4107C2.20795 13.5026 2.31745 13.5562 2.4337 13.5562H4.91995C5.0362 13.5562 5.1457 13.5022 5.21657 13.4107C5.28745 13.3189 5.3122 13.1992 5.28295 13.0867Z" fill="#1A2921"/>
<path d="M6.80469 13.4591C6.59769 13.4591 6.42969 13.2911 6.42969 13.0841V4.23676C6.42969 4.02976 6.59769 3.86176 6.80469 3.86176C7.01169 3.86176 7.17969 4.02976 7.17969 4.23676V13.0841C7.17969 13.2911 7.01169 13.4591 6.80469 13.4591Z" fill="#1A2921"/>
<path d="M6.80475 9.2771H0.375C0.168 9.2771 0 9.1091 0 8.9021C0 8.6951 0.168 8.5271 0.375 8.5271H6.80475C7.01175 8.5271 7.17975 8.6951 7.17975 8.9021C7.17975 9.1091 7.01175 9.2771 6.80475 9.2771Z" fill="#1A2921"/>
<path d="M20.168 16.0065C19.8747 14.3708 18.5881 13.131 16.9951 12.861C17.6135 12.1916 17.9645 11.3123 17.9645 10.3733C17.9645 8.34339 16.313 6.69189 14.2835 6.69189C12.254 6.69189 10.6021 8.34339 10.6021 10.3733C10.6021 11.3123 10.9535 12.1916 11.5715 12.861C10.4937 13.0425 9.54083 13.6684 8.94533 14.6104C8.67046 15.0401 8.48596 15.5096 8.39708 16.0069L7.57246 20.5583C7.55258 20.6678 7.58221 20.7803 7.65346 20.8654C7.72471 20.9509 7.83008 21 7.94146 21H20.624C20.735 21 20.8407 20.9509 20.912 20.8654C20.9832 20.7799 21.0128 20.6674 20.993 20.5583L20.168 16.0065Z" fill="#7C9A82"/>
<path d="M10.8363 19.8752C10.8142 19.8752 10.7917 19.8733 10.7692 19.8692C10.5656 19.8324 10.4302 19.6371 10.467 19.4334L10.9882 16.5534C11.025 16.3498 11.2188 16.2133 11.424 16.2512C11.6276 16.2879 11.763 16.4833 11.7262 16.6869L11.205 19.5669C11.1723 19.7481 11.0145 19.8752 10.8363 19.8752Z" fill="#1A2921"/>
<path d="M17.728 19.875C17.5499 19.875 17.392 19.7479 17.3594 19.5668L16.8382 16.6868C16.801 16.4832 16.9364 16.2878 17.1404 16.251C17.3455 16.2128 17.5394 16.3497 17.5762 16.5533L18.0974 19.4333C18.1345 19.6369 17.9992 19.8323 17.7952 19.869C17.7723 19.8732 17.7502 19.875 17.728 19.875Z" fill="#1A2921"/>
<path d="M14.2852 13.9838C14.0381 13.9838 13.7917 13.9482 13.5735 13.8814C13.3755 13.8203 13.2645 13.6107 13.3252 13.4127C13.3863 13.2147 13.5956 13.1033 13.794 13.1644C14.0898 13.2555 14.4798 13.2555 14.7787 13.1644C14.9763 13.1033 15.1863 13.2158 15.2471 13.4138C15.3075 13.6118 15.1957 13.8214 14.9977 13.8822C14.775 13.95 14.5353 13.9845 14.2852 13.9845V13.9838Z" fill="#1A2921"/>
<path d="M7.27241 3.26325H6.33866C5.43903 3.26325 4.70703 2.53125 4.70703 1.63162C4.70703 0.732 5.43903 0 6.33866 0H7.27241C8.17203 0 8.90403 0.732 8.90403 1.63162C8.90403 2.53125 8.17203 3.26325 7.27241 3.26325ZM6.33866 0.75C5.85266 0.75 5.45703 1.14562 5.45703 1.63162C5.45703 2.11762 5.85266 2.51325 6.33866 2.51325H7.27241C7.75841 2.51325 8.15403 2.11762 8.15403 1.63162C8.15403 1.14562 7.75841 0.75 7.27241 0.75H6.33866Z" fill="#1A2921"/>
<path d="M8.84919 4.61174H4.76544C4.61994 4.61174 4.48757 4.52774 4.42607 4.39612C4.36457 4.26449 4.38407 4.10887 4.47707 3.99712L5.65082 2.58449C5.78319 2.42549 6.01944 2.40337 6.17882 2.53574C6.33819 2.66812 6.35994 2.90437 6.22757 3.06374L5.56457 3.86174H8.04969L7.38332 3.06074C7.25094 2.90137 7.27269 2.66512 7.43169 2.53237C7.59069 2.39962 7.82732 2.42137 7.96007 2.58074L9.13757 3.99637C9.23057 4.10812 9.25044 4.26374 9.18857 4.39537C9.12669 4.52699 8.99432 4.61099 8.84919 4.61099V4.61174Z" fill="#1A2921"/>
<path d="M6.91484 2.00665H6.69922C6.49222 2.00665 6.32422 1.83865 6.32422 1.63165C6.32422 1.42465 6.49222 1.25665 6.69922 1.25665H6.91484C7.12184 1.25665 7.28984 1.42465 7.28984 1.63165C7.28984 1.83865 7.12184 2.00665 6.91484 2.00665Z" fill="#1A2921"/>
</svg>
